<?xml version="1.0" encoding="UTF-8"?><svg id="Layer_1" xmlns="http://www.w3.org/2000/svg" viewBox="0 0 181.19 159.79"><defs><style>.cls-1{fill:#b09454;}</style></defs><g><path d="M38.23,85.14h38.35v14.94H38.23v-14.94Z"/><path d="M109.94,85.14h38.35v14.94h-38.35v-14.94Z"/><path d="M73.59,16.91h38.35v14.94h-38.35v-14.94Z"/></g><path class="cls-1" d="M120.85,90.12h15.73c1.42,0,2.56,1.14,2.56,2.55s-1.14,2.56-2.56,2.56h-15.73c-1.42,0-2.56-1.14-2.56-2.56s1.14-2.55,2.56-2.55m-70.94,0h15.73c1.41,0,2.56,1.14,2.56,2.55s-1.14,2.56-2.56,2.56h-15.73c-1.41,0-2.56-1.14-2.56-2.56s1.14-2.55,2.56-2.55m47.94-8.75c-.88,0-1.59,.71-1.59,1.58v61.74c0,.88,.71,1.59,1.59,1.59h61.73c.88,0,1.58-.71,1.58-1.59v-61.74c0-.88-.7-1.58-1.58-1.58h-61.73Zm-70.94,0c-.88,0-1.58,.71-1.58,1.58v61.74c0,.88,.7,1.59,1.58,1.59h61.74c.88,0,1.58-.71,1.58-1.59v-61.74c0-.88-.7-1.58-1.58-1.58H26.9ZM85.38,20.75h15.73c1.42,0,2.56,1.14,2.56,2.55s-1.14,2.56-2.56,2.56h-15.73c-1.42,0-2.55-1.14-2.55-2.56s1.14-2.55,2.55-2.55m-23-8.75c-.88,0-1.59,.71-1.59,1.58v61.74c0,.88,.71,1.58,1.59,1.58h61.74c.88,0,1.58-.7,1.58-1.58V13.58c0-.88-.71-1.58-1.58-1.58H62.38Z"/></svg>